<?xml version="1.0" encoding="UTF-8" standalone="no" ?>
<!DOCTYPE svg PUBLIC "-//W3C//DTD SVG 1.1//EN" "http://www.w3.org/Graphics/SVG/1.1/DTD/svg11.dtd">
<svg xmlns="http://www.w3.org/2000/svg" xmlns:xlink="http://www.w3.org/1999/xlink" version="1.1" width="80" height="80" viewBox="0 0 1080 1080" xml:space="preserve">
<desc>Created with Fabric.js 5.2.4</desc>
<defs>
</defs>
<g transform="matrix(1 0 0 1 540 540)" id="238ea76d-f651-4aeb-87e6-c0d9f7f0a29e"  >
<rect style="stroke: none; stroke-width: 1; stroke-dasharray: none; stroke-linecap: butt; stroke-dashoffset: 0; stroke-linejoin: miter; stroke-miterlimit: 4; fill: rgb(255,255,255); fill-rule: nonzero; opacity: 1; visibility: hidden;" vector-effect="non-scaling-stroke"  x="-540" y="-540" rx="0" ry="0" width="1080" height="1080" />
</g>
<g transform="matrix(1 0 0 1 540 540)" id="be178838-b489-4198-a0c8-fb2ed0af14f0"  >
</g>
<g transform="matrix(NaN NaN NaN NaN 0 0)"  >
<g style=""   >
</g>
</g>
<g transform="matrix(0.11 0 0 0.11 540 540)"  >
<path style="stroke: none; stroke-width: 1; stroke-dasharray: none; stroke-linecap: butt; stroke-dashoffset: 0; stroke-linejoin: miter; stroke-miterlimit: 4; fill: rgb(48,121,30); fill-rule: nonzero; opacity: 1;"  transform=" translate(-4832.96, -4818.44)" d="M 8284 9162 C 8282 8955 8229 8735 8123 8495 C 7976 8162 7719 7851 7390 7609 C 7309 7550 7143 7440 7134 7440 C 7131 7440 7116 7431 7100 7420 C 7074 7401 6756 7240 6746 7240 C 6743 7240 6717 7229 6688 7216 C 6461 7115 6046 6991 5715 6926 C 5590 6901 5318 6856 5235 6846 C 5213 6843 5159 6837 5115 6831 C 5015 6818 4973 6814 4758 6795 C 4729 6793 4660 6788 4605 6785 C 4338 6770 4169 6757 4080 6745 C 4066 6743 4035 6738 4010 6735 C 3951 6727 3911 6721 3880 6715 C 3866 6712 3839 6708 3820 6704 C 3801 6701 3781 6697 3775 6696 C 3770 6694 3747 6690 3725 6686 C 3491 6641 3108 6521 2903 6429 C 2880 6419 2858 6410 2855 6410 C 2848 6410 2571 6272 2515 6240 C 1884 5885 1408 5398 1113 4808 C 954 4488 862 4175 805 3752 C 779 3562 778 3117 804 2920 C 807 2901 811 2861 814 2831 C 818 2801 825 2747 831 2711 C 837 2675 843 2634 845 2620 C 852 2577 878 2446 884 2430 C 887 2422 891 2402 893 2385 C 899 2350 945 2164 965 2100 C 972 2075 988 2021 1000 1980 C 1029 1881 1118 1697 1189 1591 C 1256 1488 1392 1347 1475 1293 C 1550 1244 1653 1190 1671 1190 C 1687 1190 1698 1206 1748 1300 C 1872 1531 2052 1829 2233 2100 C 2315 2224 2386 2327 2390 2330 C 2393 2333 2418 2366 2444 2404 C 2560 2571 2828 2901 2990 3075 C 3138 3235 3438 3525 3550 3617 C 3564 3629 3604 3662 3640 3692 C 3728 3765 3859 3864 3953 3930 C 3995 3959 4030 3987 4030 3992 C 4030 3997 4017 4026 4001 4058 C 3932 4195 3852 4463 3820 4660 C 3813 4701 3806 4742 3805 4750 C 3804 4758 3799 4796 3795 4833 C 3792 4870 3787 4910 3785 4921 C 3783 4932 3778 4986 3774 5043 C 3771 5099 3766 5147 3765 5150 C 3763 5153 3765 5162 3770 5169 C 3776 5179 3780 5177 3785 5159 C 3795 5125 3952 4813 4013 4705 C 4131 4495 4332 4190 4353 4190 C 4357 4190 4393 4208 4433 4230 C 4663 4358 4954 4485 5220 4573 C 5338 4613 5556 4675 5615 4686 C 5643 4691 5668 4697 5720 4709 C 5745 4714 5779 4721 5795 4724 C 5812 4727 5836 4732 5850 4735 C 5884 4742 6124 4778 6185 4785 C 6337 4803 6557 4814 6750 4814 C 6944 4814 7231 4803 7239 4795 C 7241 4792 7236 4789 7227 4789 C 7218 4788 7207 4787 7203 4786 C 7170 4778 7130 4770 7105 4765 C 7044 4755 6841 4709 6715 4675 C 6066 4505 5472 4238 4945 3881 C 4885 3840 4824 3799 4811 3788 L 4787 3770 L 4911 3711 C 5020 3659 5193 3595 5315 3562 C 5407 3536 5507 3511 5535 3507 C 5552 3504 5599 3495 5640 3486 C 5711 3472 5791 3458 5870 3445 C 5889 3442 5916 3438 5930 3435 C 5944 3433 5975 3428 6000 3425 C 6025 3421 6056 3417 6070 3415 C 6084 3413 6123 3408 6158 3405 C 6193 3401 6229 3397 6239 3395 C 6249 3393 6290 3389 6331 3386 C 6432 3377 6472 3372 6478 3365 C 6481 3362 6463 3360 6439 3359 C 6415 3359 6387 3357 6377 3355 C 6356 3351 6238 3343 6070 3333 C 5828 3319 5370 3326 5190 3346 C 5149 3350 5003 3373 4940 3385 C 4815 3408 4666 3453 4567 3496 C 4524 3515 4486 3530 4481 3530 C 4477 3530 4465 3522 4454 3513 C 4444 3503 4417 3480 4395 3461 C 4229 3320 3973 3066 3803 2875 C 3575 2618 3267 2203 3115 1950 C 3094 1914 3072 1884 3068 1882 C 3064 1880 3060 1875 3060 1871 C 3060 1866 3036 1823 3006 1774 C 2850 1513 2513 859 2526 839 C 2528 836 2573 818 2627 801 C 2681 783 2734 765 2745 760 C 2803 735 3203 622 3385 579 C 3503 552 3511 550 3540 544 C 3554 542 3585 535 3610 530 C 3676 515 3747 502 3910 475 C 3947 468 4158 442 4215 436 C 4243 433 4299 427 4340 423 C 4503 407 5132 415 5253 435 C 5265 437 5311 444 5355 450 C 5603 485 5778 526 6020 607 C 6078 626 6154 653 6190 667 C 6276 700 6534 823 6538 833 C 6540 837 6546 840 6551 840 C 6565 840 6756 956 6854 1024 C 7034 1150 7141 1240 7320 1420 C 7602 1701 7831 2013 8095 2475 C 8138 2550 8273 2822 8320 2930 C 8420 3157 8556 3532 8606 3720 C 8665 3940 8701 4084 8726 4205 C 8732 4233 8771 4450 8776 4480 C 8778 4494 8783 4521 8786 4540 C 8789 4559 8794 4589 8796 4605 C 8798 4622 8802 4651 8805 4670 C 8820 4770 8840 4932 8845 5005 C 8848 5044 8853 5094 8855 5117 C 8877 5342 8888 5920 8876 6160 C 8873 6201 8869 6289 8865 6355 C 8862 6421 8857 6491 8855 6510 C 8853 6529 8849 6586 8845 6635 C 8842 6685 8837 6736 8835 6750 C 8833 6764 8829 6807 8825 6845 C 8818 6917 8813 6958 8805 7020 C 8803 7039 8798 7075 8795 7100 C 8789 7146 8752 7395 8744 7440 C 8742 7454 8735 7494 8729 7530 C 8724 7566 8713 7627 8705 7665 C 8697 7704 8688 7749 8685 7765 C 8673 7833 8667 7862 8635 8013 C 8616 8100 8588 8217 8574 8273 C 8560 8329 8547 8382 8545 8390 C 8515 8537 8313 9200 8292 9222 C 8288 9226 8285 9199 8284 9162 z" stroke-linecap="round" />
</g>
</svg>